<svg viewBox="0 0 515 512" fill="none" xmlns="http://www.w3.org/2000/svg"><path d="M31.647 296.455L0 328.1l115.392 74.439 64.767-115.365-148.512 9.281z" fill="#FF8336"/><path d="M109.889 395.765l73.639 115.868 31.646-31.643 9.282-148.514-114.567 64.289zM405.613 151.32L289.209 277.035 435.049 512l56.043-56.045-85.479-304.635z" fill="#FF6200"/><path d="M59.132 24.262L3.15 80.242l235.036 145.77L363.911 109.6 59.132 24.262z" fill="#FF8336"/><path d="M500.822 10.89L108.577 403.135 94.602 389.17l13.486-34.434c18.464-41.955 38.017-71.992 63.422-97.387L362.009 66.85c24.744-24.743 57.06-45.762 96.033-62.475l3.522-1.506c13.283-5.69 28.469-2.769 38.698 7.45l.56.57z" fill="#EDF5FF"/><path d="M511.306 52.603c-14.667 34.24-32.419 70.099-62.71 100.38L257.874 343.705c-29.915 29.915-64.99 47.656-98.436 62.374l-.58.244-33.843 13.242-16.438-16.438L500.822 10.882l3.033 3.033c10.219 10.22 13.151 25.405 7.451 38.688z" fill="#D7E9FF"/></svg>
