<?xml version="1.0" standalone="no"?>
<!DOCTYPE svg PUBLIC "-//W3C//DTD SVG 20010904//EN"
 "http://www.w3.org/TR/2001/REC-SVG-20010904/DTD/svg10.dtd">
<svg version="1.0" xmlns="http://www.w3.org/2000/svg"
 width="515.000000pt" height="515.000000pt" viewBox="0 0 515.000000 515.000000"
 preserveAspectRatio="xMidYMid meet">
<metadata>
Created by potrace 1.11, written by Peter Selinger 2001-2013
</metadata>
<g transform="translate(0.000000,515.000000) scale(0.100000,-0.100000)"
fill="#000000" stroke="none">
<path d="M4605 5106 c-255 -103 -561 -279 -763 -438 -103 -82 -127 -105 -345
-320 l-209 -208 -47 15 c-25 7 -120 34 -211 60 -170 47 -239 66 -325 91 -27 8
-66 19 -85 24 -101 28 -331 92 -375 105 -57 16 -469 131 -740 206 -99 28 -209
59 -245 69 -87 26 -486 137 -580 162 -41 11 -77 22 -79 24 -3 3 -132 -122
-287 -277 l-282 -282 261 -162 c668 -413 833 -515 844 -525 7 -5 15 -10 18
-10 3 0 36 -20 73 -44 37 -24 155 -97 262 -163 329 -202 655 -405 663 -412 4
-4 -109 -124 -250 -267 -298 -299 -336 -341 -420 -455 -29 -39 -48 -55 -64
-56 -23 0 -194 -10 -309 -18 -118 -7 -239 -15 -325 -20 -49 -3 -117 -7 -150
-10 -33 -2 -112 -7 -175 -10 -63 -3 -124 -9 -134 -12 -10 -3 -88 -75 -173
-160 l-154 -155 65 -42 c37 -22 166 -106 289 -184 122 -79 305 -197 407 -263
171 -110 196 -130 338 -272 108 -107 168 -176 203 -232 27 -44 140 -222 251
-395 110 -173 212 -333 224 -355 13 -22 32 -51 43 -64 l19 -24 156 156 157
155 4 64 c4 62 11 163 20 303 3 39 7 113 10 165 3 52 8 127 10 165 2 39 7 115
10 170 8 131 14 208 17 209 2 1 26 17 53 35 111 76 213 167 473 425 150 149
275 272 276 274 2 2 63 -93 136 -210 73 -117 230 -369 349 -560 119 -191 222
-357 229 -370 7 -13 21 -35 30 -50 9 -14 39 -62 65 -105 27 -43 66 -105 87
-138 21 -33 45 -71 53 -85 18 -33 323 -525 354 -572 l25 -37 279 280 c153 154
279 281 279 283 0 3 -16 60 -36 128 -19 68 -37 130 -39 138 -1 8 -17 65 -35
125 -18 61 -34 118 -35 128 -2 9 -6 21 -9 25 -3 5 -8 22 -11 38 -3 16 -7 34
-9 39 -1 6 -8 30 -15 55 -7 25 -15 52 -17 60 -2 8 -22 78 -44 155 -22 77 -42
147 -44 155 -1 8 -6 22 -9 30 -3 8 -15 51 -27 95 -12 44 -28 105 -37 135 -8
30 -17 62 -18 70 -2 8 -22 78 -44 155 -22 77 -74 262 -116 410 -41 149 -81
293 -89 320 -19 66 -37 131 -84 296 l-39 136 221 224 c122 123 236 242 253
264 17 22 45 58 62 80 17 22 34 45 39 50 90 112 283 471 372 692 36 89 39 105
37 178 -3 102 -34 169 -117 253 -83 83 -152 115 -255 118 -70 2 -90 -2 -160
-30z"/>
</g>
</svg>
