<svg viewBox="0 0 10 10" fill="none" xmlns="http://www.w3.org/2000/svg"><g clip-path="url(#prefix__prefix__clip0)"><path d="M6.855 9.797a.666.666 0 01-.054-.064.69.69 0 01.097-.884l.21-.21a1 1 0 01.247-.18l.25-.13H1.388a.69.69 0 01-.704-.554.667.667 0 01.667-.763h6.244l-.197-.09a1 1 0 01-.283-.197l-.22-.22a.69.69 0 01-.097-.884.667.667 0 011-.087l1.668 1.668c.26.26.261.682 0 .943L7.798 9.814a.667.667 0 01-.943-.016zM2.182 4.47L.534 2.825a.667.667 0 010-.944L2.202.214a.69.69 0 01.884-.097.667.667 0 01.086 1l-.227.227a1 1 0 01-.386.24l-.207.09h6.3a.69.69 0 01.704.56.667.667 0 01-.667.775H2.352l.19.066a1 1 0 01.373.237l.24.24a.667.667 0 01-.04.981.694.694 0 01-.933-.063z"/></g></svg>
