<svg xmlns="http://www.w3.org/2000/svg" viewBox="0 0 45 45"><g clip-path="url(#prefix__prefix__prefix__clip0)"><path d="M22.5.012c-9.782 0-17.74 7.936-17.74 17.692 0 6.08 3.09 11.453 7.788 14.639v11.252c0 .44.223.849.593 1.087.37.239.836.274 1.238.094l8.12-3.645 8.122 3.645a1.3 1.3 0 001.83-1.18V32.342c4.698-3.186 7.79-8.56 7.79-14.639C40.24 7.948 32.28.012 22.5.012zm7.356 41.581l-6.824-3.062a1.3 1.3 0 00-1.065 0l-6.823 3.062v-7.787a17.68 17.68 0 002.004.767l.117.037a17.43 17.43 0 00.917.255 15.106 15.106 0 00.613.142c.106.023.211.044.317.064l.13.025c.112.021.225.04.338.06l.116.019.352.052.109.015c.119.016.238.03.358.043l.107.012c.119.013.238.024.358.034l.11.01c.118.009.236.016.355.023l.115.007c.12.007.24.011.361.015l.11.004a18.339 18.339 0 00.939 0l.109-.004c.12-.004.241-.008.361-.015l.115-.007c.119-.007.237-.014.355-.024.037-.002.073-.006.11-.01.12-.01.24-.02.359-.033l.106-.012a18.3 18.3 0 00.358-.043l.11-.015.35-.052.117-.02a18.081 18.081 0 001.398-.29c.083-.02.166-.042.249-.064l.212-.058a18.07 18.07 0 00.456-.133l.117-.037c.682-.215 1.351-.47 2.004-.766v7.786zm-2.414-9.612l-.156.053a13.723 13.723 0 01-.713.218 16.84 16.84 0 01-.37.098l-.14.034c-.121.03-.243.057-.365.083l-.092.02c-.158.033-.316.064-.475.091l-.049.009a14.859 14.859 0 01-.989.137l-.017.002c-.162.017-.323.03-.486.042l-.105.007a15.38 15.38 0 01-.38.02c-.042 0-.085.003-.128.004a15.793 15.793 0 01-.954 0l-.13-.005a15.38 15.38 0 01-.378-.02l-.106-.006a15.423 15.423 0 01-.485-.042l-.017-.002a15.103 15.103 0 01-.99-.137l-.048-.009a15.165 15.165 0 01-.475-.09l-.092-.02a14.64 14.64 0 01-.365-.084l-.14-.034a15.19 15.19 0 01-1.084-.317l-.155-.053c-5.931-2.047-10.202-7.673-10.202-14.276 0-8.328 6.793-15.103 15.144-15.103 8.35 0 15.144 6.775 15.144 15.103 0 6.603-4.27 12.229-10.202 14.277z"/><path d="M30.201 17.704l2.438-4.57c.21-.395.202-.87-.022-1.256a1.299 1.299 0 00-1.079-.646l-5.188-.18-2.75-4.39a1.3 1.3 0 00-2.201 0l-2.75 4.39-5.187.18a1.291 1.291 0 00-1.101 1.902l2.438 4.57-2.438 4.57a1.294 1.294 0 001.101 1.902l5.187.179 2.75 4.39a1.3 1.3 0 002.202 0l2.75-4.39 5.187-.18a1.3 1.3 0 001.08-.646 1.29 1.29 0 00.021-1.255l-2.438-4.57zm-4.63 4.087a1.299 1.299 0 00-1.057.608L22.5 25.616 20.485 22.4a1.299 1.299 0 00-1.055-.608l-3.801-.131 1.786-3.348a1.29 1.29 0 000-1.216l-1.786-3.348 3.8-.132a1.299 1.299 0 001.056-.608L22.5 9.791l2.014 3.217a1.3 1.3 0 001.056.608l3.8.132-1.785 3.348a1.29 1.29 0 000 1.216l1.786 3.348-3.8.131z"/></g></svg>
