<svg viewBox="0 0 14 14" xmlns="http://www.w3.org/2000/svg">
  <path
    d="M0 5.68848L1.37674 12.7807C1.50734 13.4806 2.14282 13.9928 2.8892 13.9996H11.1108C11.8572 13.9928 12.4927 13.4807 12.6233 12.7807L14 5.68848H0ZM4.47924 8.86521C4.47924 9.06923 4.30561 9.2346 4.09142 9.2346C3.87723 9.2346 3.70361 9.06923 3.70361 8.86521V7.75706C3.70361 7.55304 3.87723 7.38767 4.09142 7.38767C4.30561 7.38767 4.47924 7.55304 4.47924 7.75706V8.86521ZM10.2964 8.86521C10.2964 9.06923 10.1228 9.2346 9.90861 9.2346C9.69442 9.2346 9.5208 9.06923 9.5208 8.86521V7.75706C9.5208 7.55304 9.69442 7.38767 9.90861 7.38767C10.1228 7.38767 10.2964 7.55304 10.2964 7.75706V8.86521Z" />
  <path
    d="M4.47925 3.13975C4.47925 1.81373 5.60785 0.738769 7.00004 0.738769C8.39223 0.738769 9.52083 1.81373 9.52083 3.13975V5.31911H10.2965V3.13975C10.2965 1.4057 8.82062 0 7.00004 0C5.17946 0 3.70361 1.4057 3.70361 3.13975V5.31911H4.47925V3.13975Z" />
</svg>
