<svg viewBox="0 0 14 14" xmlns="http://www.w3.org/2000/svg"><path d="M0 5.688l1.377 7.093c.13.7.766 1.212 1.512 1.219h8.222c.746-.007 1.382-.52 1.512-1.22L14 5.689H0zm4.48 3.177c0 .204-.174.37-.389.37a.379.379 0 01-.387-.37V7.757c0-.204.173-.37.387-.37.215 0 .388.166.388.37v1.108zm5.816 0c0 .204-.173.37-.387.37a.379.379 0 01-.388-.37V7.757c0-.204.173-.37.388-.37.214 0 .387.166.387.37v1.108zM4.48 3.14C4.48 1.814 5.607.739 7 .739c1.392 0 2.52 1.075 2.52 2.4v2.18h.777V3.14C10.296 1.407 8.82 0 7 0 5.18 0 3.704 1.406 3.704 3.14v2.18h.775V3.14z"/></svg>
