<svg viewBox="0 0 16 16" xmlns="http://www.w3.org/2000/svg">
  <path
    d="M7.945 16a.872.872 0 01-.614-.261c-.642-.636-1.26-1.232-1.807-1.76l-.003-.002c-1.6-1.544-2.983-2.877-3.945-4.19C.501 8.316 0 6.925 0 5.404c0-1.478.448-2.841 1.26-3.84C2.084.557 3.213 0 4.44 0c.916 0 1.756.328 2.496.975.373.327.711.727 1.01 1.193A5.538 5.538 0 018.954.975C9.695.328 10.535 0 11.452 0c1.227 0 2.355.556 3.178 1.566.813.998 1.26 2.361 1.26 3.839 0 1.52-.5 2.913-1.575 4.381-.962 1.314-2.345 2.647-3.945 4.19-.547.528-1.167 1.126-1.81 1.763a.873.873 0 01-.615.261zM4.44 1.053c-.964 0-1.85.436-2.494 1.227C1.29 3.083.93 4.192.93 5.405c0 1.279.42 2.423 1.362 3.71.91 1.242 2.264 2.548 3.832 4.06l.003.003c.548.529 1.17 1.128 1.816 1.768a226.98 226.98 0 011.822-1.77c1.568-1.513 2.922-2.819 3.832-4.062.942-1.286 1.362-2.43 1.362-3.71 0-1.212-.36-2.321-1.014-3.124-.644-.791-1.53-1.227-2.494-1.227-.707 0-1.355.255-1.928.756-.51.446-.866 1.011-1.074 1.406a.573.573 0 01-.505.325.573.573 0 01-.504-.325c-.209-.395-.564-.96-1.075-1.406-.572-.501-1.22-.756-1.927-.756z" />
  <path
    d="M11.75 0C10.8818 0 10.0858 0.311646 9.38416 0.926301C8.7115 1.51558 8.26366 2.26612 8 2.81189C7.73634 2.26609 7.2885 1.51558 6.61584 0.926301C5.91422 0.311646 5.11822 0 4.25 0C1.82713 0 0 2.24485 0 5.22173C0 8.43781 2.27947 10.6382 5.73028 13.9693C6.31628 14.535 6.9805 15.1762 7.67088 15.86C7.76188 15.9503 7.87875 16 8 16C8.12125 16 8.23813 15.9503 8.32913 15.8601C9.01956 15.1761 9.68375 14.5349 10.2701 13.9689C13.7205 10.6382 16 8.43781 16 5.22173C16 2.24485 14.1729 0 11.75 0Z" />
</svg>
