<svg viewBox="0 0 16 16" xmlns="http://www.w3.org/2000/svg"><path d="M7.945 16a.872.872 0 01-.614-.261c-.642-.636-1.26-1.232-1.807-1.76l-.003-.002c-1.6-1.544-2.983-2.877-3.945-4.19C.501 8.316 0 6.925 0 5.404c0-1.478.448-2.841 1.26-3.84C2.084.557 3.213 0 4.44 0c.916 0 1.756.328 2.496.975a5.59 5.59 0 011.01 1.193A5.538 5.538 0 018.954.975C9.695.328 10.535 0 11.452 0c1.227 0 2.355.556 3.178 1.566.813.998 1.26 2.361 1.26 3.839 0 1.52-.5 2.913-1.575 4.381-.962 1.314-2.345 2.647-3.945 4.19-.547.528-1.167 1.126-1.81 1.763a.873.873 0 01-.615.261zM4.44 1.053c-.964 0-1.85.436-2.494 1.227C1.29 3.083.93 4.192.93 5.405c0 1.279.42 2.423 1.362 3.71.91 1.242 2.264 2.548 3.832 4.06l.003.003c.548.529 1.17 1.128 1.816 1.768a226.98 226.98 0 011.822-1.77c1.568-1.513 2.922-2.819 3.832-4.062.942-1.286 1.362-2.43 1.362-3.71 0-1.212-.36-2.321-1.014-3.124-.644-.791-1.53-1.227-2.494-1.227-.707 0-1.355.255-1.928.756-.51.446-.866 1.011-1.074 1.406a.573.573 0 01-.505.325.573.573 0 01-.504-.325c-.209-.395-.564-.96-1.075-1.406-.572-.501-1.22-.756-1.927-.756z"/><path d="M11.75 0c-.868 0-1.664.312-2.366.926-.673.59-1.12 1.34-1.384 1.886-.264-.546-.712-1.296-1.384-1.886C5.914.312 5.118 0 4.25 0 1.827 0 0 2.245 0 5.222c0 3.216 2.28 5.416 5.73 8.747.586.566 1.25 1.207 1.94 1.891.092.09.209.14.33.14.121 0 .238-.05.33-.14a205.65 205.65 0 011.94-1.891C13.72 10.639 16 8.438 16 5.222 16 2.245 14.173 0 11.75 0z"/></svg>
