<svg xmlns="http://www.w3.org/2000/svg" viewBox="0 0 45 45"><path d="M43.532 29.461a22.214 22.214 0 00-1.36-17.146c.945-1.518 1.422-2.933 1.422-4.229A7.377 7.377 0 0031.62 2.311 22.183 22.183 0 0011.147 3.48 7.378 7.378 0 00.703 10.195c0 1.224.426 2.554 1.268 3.976a22.001 22.001 0 00-1.62 8.33C.105 34.393 10.596 44.9 22.502 44.647c9.345.11 18.181-6.267 21.031-15.187zm-.993-6.96a20.018 20.018 0 01-.542 4.645l-1.173-1.173a1.054 1.054 0 00-.572-.294l-3.803-.634-.774-1.032a7.373 7.373 0 00-.976-1.82l-.522-4.703.443-.222c.546.48.912.767.944.79a1.055 1.055 0 001.295 0 28.41 28.41 0 003.3-3.114c.212-.235.413-.468.605-.7A20.093 20.093 0 0142.54 22.5zm-2.543 9.777l-.323-.97a1.055 1.055 0 00-.794-.701l-3.67-.734c.494-.963.788-1.88.88-2.75l3.482.58 1.734 1.735c-.361.98-.799 1.929-1.309 2.84zm-7.733-17.334c.246.273.49.533.73.779l-.418.209a1.055 1.055 0 00-.576 1.06l.346 3.11A7.372 7.372 0 0022.2 23.12l-1.418-.22-3.662-2.44-.445-2.227 2.261-.905 2.39 1.194a1.055 1.055 0 001.281-.268l3.375-4.049 4.153-2.077a18.523 18.523 0 002.128 2.817zm-3.524 6.324a5.28 5.28 0 015.273 5.273c0 2.688-3.365 6.136-5.273 7.776-1.91-1.64-5.274-5.088-5.274-7.776a5.28 5.28 0 015.273-5.273zM36.21 2.813a5.28 5.28 0 015.273 5.273c0 2.688-3.364 6.136-5.273 7.776-2.172-1.903-5.221-5.076-5.273-7.776a5.279 5.279 0 015.273-5.273zM22.5 2.461c2.605-.006 5.186.5 7.597 1.49a7.34 7.34 0 00-1.27 4.135c.01.73.143 1.454.394 2.14l-4.381 2.19c-.13.065-.245.156-.339.268l-2.98 3.577-2.066-1.032a1.055 1.055 0 00-.863-.036l-3.516 1.406a1.054 1.054 0 00-.642 1.186l.703 3.516a1.055 1.055 0 00.449.67l4.219 2.813c.127.085.272.142.424.165l1.26.195c-.089.46-.134.928-.134 1.397.002.443.054.885.154 1.316l-6.89-3.445-2.437-1.828-1.126-4.502c.316-.317.646-.661.977-1.028 2.28-2.533 3.435-4.84 3.435-6.859a7.362 7.362 0 00-2.358-5.402 19.987 19.987 0 019.39-2.332zM8.085 4.922a5.28 5.28 0 015.274 5.273c0 2.213-2.278 4.938-4.149 6.748-.04.034-.078.07-.113.11-.362.345-.705.655-1.011.918-1.91-1.64-5.274-5.087-5.274-7.776a5.28 5.28 0 015.273-5.273zM2.75 25.889l.69.758c.14.153.322.262.524.313l2.525.63c.755.782 1.46 1.646 1.602 1.974.086 1.083 1.422 1.508 2.904 1.878a31.14 31.14 0 001.855.397l1.292 1.292-1.686 2.81a1.054 1.054 0 00-.136.373l-.509 3.128A20.084 20.084 0 012.75 25.889zm11.02 14.646l.6-3.682 2.004-3.342a1.055 1.055 0 00-.158-1.289l-2.11-2.11a1.055 1.055 0 00-.571-.294c-1.404-.234-2.882-.61-3.422-.86-.174-.514-.705-1.435-2.334-3.064a1.055 1.055 0 00-.49-.277l-2.503-.626-2.323-2.551c.003-2.1.337-4.187.991-6.183.216.263.444.528.685.796a28.405 28.405 0 003.3 3.116c.751.473 1.14.164 1.852-.457l.937 3.747c.059.235.197.442.39.588l2.813 2.11c.05.037.104.07.161.099l6.31 3.155-.544 2.726c-.014.068-.02.137-.02.207v3.515a1.054 1.054 0 00.582.944l3.636 1.818v3.567c0 .098.014.195.04.29l.01.03a19.92 19.92 0 01-9.835-1.973zm11.963 1.743l-.068-.238v-4.071a1.055 1.055 0 00-.583-.944l-3.636-1.817v-2.76l.605-3.024c.569 1.249 1.482 2.574 2.74 3.974a28.421 28.421 0 003.3 3.116 1.055 1.055 0 001.296 0 28.428 28.428 0 003.3-3.115c.495-.55.936-1.087 1.324-1.615l3.855.77.66 1.98a20.072 20.072 0 01-12.793 7.743z"/><path d="M11.602 10.195a3.516 3.516 0 10-7.032 0 3.516 3.516 0 007.032 0zm-4.922 0a1.406 1.406 0 112.812 0 1.406 1.406 0 01-2.812 0zm29.53 1.407a3.515 3.515 0 10.001-7.031 3.515 3.515 0 000 7.03zm0-4.922a1.406 1.406 0 11.001 2.812 1.406 1.406 0 010-2.812zm-3.956 19.861a3.516 3.516 0 10-7.032 0 3.516 3.516 0 007.032 0zm-4.922 0a1.406 1.406 0 112.813 0 1.406 1.406 0 01-2.813 0z"/></svg>
