<svg xmlns="http://www.w3.org/2000/svg" viewBox="0 0 45 45"><g clip-path="url(#prefix__prefix__prefix__prefix__clip0)"><path d="M17.89 30.322l6.215-18.645a1.318 1.318 0 00-2.501-.834l-6.215 18.645a1.319 1.319 0 002.502.834zm9.315-5.782a3.96 3.96 0 003.955-3.956 3.96 3.96 0 00-3.955-3.955 3.96 3.96 0 00-3.955 3.955 3.96 3.96 0 003.955 3.955zm0-5.274a1.32 1.32 0 011.318 1.318 1.32 1.32 0 01-1.318 1.318 1.32 1.32 0 01-1.318-1.318 1.32 1.32 0 011.318-1.318zM12.29 16.629a3.96 3.96 0 00-3.956 3.955 3.96 3.96 0 003.955 3.955 3.96 3.96 0 003.955-3.955 3.96 3.96 0 00-3.955-3.955zm0 5.273a1.32 1.32 0 01-1.32-1.318 1.32 1.32 0 011.32-1.318 1.32 1.32 0 011.318 1.318 1.32 1.32 0 01-1.319 1.318z"/><path d="M44.736 16.348l-4.597-6.13.18-1.255a1.325 1.325 0 00-.373-1.12l-2.797-2.796 2.797-2.796A1.318 1.318 0 1038.08.386l-2.796 2.797L32.488.386a1.32 1.32 0 00-1.119-.373L18.32 1.878a1.31 1.31 0 00-.747.373L1.414 18.409a4.84 4.84 0 000 6.836l13.672 13.673c.28.28.586.517.91.713v.535A4.84 4.84 0 0020.83 45h19.336A4.84 4.84 0 0045 40.166V17.139c0-.286-.092-.563-.264-.791zM3.279 23.38a2.2 2.2 0 010-3.108L19.126 4.426l11.963-1.71 2.331 2.331-1.864 1.865-.933-.933a1.318 1.318 0 00-1.864 1.865l3.729 3.729a1.315 1.315 0 001.864 0 1.318 1.318 0 000-1.865l-.932-.932 1.864-1.864 2.331 2.33-1.71 11.964-15.847 15.848a2.183 2.183 0 01-1.553.643 2.183 2.183 0 01-1.554-.644L3.278 23.381zm39.086 16.785a2.2 2.2 0 01-2.198 2.197H20.83a2.2 2.2 0 01-2.19-2.035 4.815 4.815 0 003.283-1.41L38.08 22.759c.202-.201.333-.463.373-.745l1.158-8.105 2.752 3.67v22.587z"/></g></svg>
