<svg viewBox="0 0 10 14" xmlns="http://www.w3.org/2000/svg"><path d="M6.004 0H3.997c-.92 0-1.67.607-1.67 1.353v1.603h1.237V1.353c0-.194.194-.351.433-.351h2.007c.238 0 .432.157.432.35v1.604h1.237V1.353C7.673.607 6.924 0 6.003 0z"/><path d="M8.834 2.558H1.166C.523 2.558 0 2.982 0 3.503v8.685c0 .521.523.945 1.166.945h7.668c.643 0 1.166-.424 1.166-.945V3.503c0-.521-.523-.945-1.166-.945z"/><path d="M1.166 12.735c-.046 0-.093-.001-.139-.004v.768c0 .277.277.5.619.5.341 0 .618-.223.618-.5v-.764H1.166zM8.834 12.735H7.736v.764c0 .277.277.5.618.5.342 0 .619-.223.619-.5v-.768a2.904 2.904 0 01-.14.004z"/></svg>
