<svg viewBox="0 0 10 14" xmlns="http://www.w3.org/2000/svg">
  <path
    d="M6.00357 0H3.99668C3.07613 0 2.32727 0.606842 2.32727 1.35274V2.95579H3.5638V1.35274C3.5638 1.15931 3.75797 1.00201 3.99664 1.00201H6.00353C6.24224 1.00201 6.43641 1.15935 6.43641 1.35274V2.95579H7.67298V1.35274C7.67298 0.606842 6.92408 0 6.00357 0Z" />
  <path
    d="M8.83357 2.55762H1.16643C0.523264 2.55762 0 2.98162 0 3.50279V12.1878C0 12.709 0.523264 13.133 1.16643 13.133H8.83357C9.47674 13.133 10 12.709 10 12.1878V3.50282C10 2.98162 9.47678 2.55762 8.83357 2.55762Z" />
  <path
    d="M1.16634 12.735C1.11969 12.735 1.07345 12.7336 1.0274 12.7314V13.4989C1.0274 13.7756 1.30423 13.9999 1.64569 13.9999C1.98715 13.9999 2.26397 13.7756 2.26397 13.4989V12.735H1.16634Z" />
  <path
    d="M8.83369 12.735H7.73602V13.4989C7.73602 13.7756 8.01285 13.9999 8.35431 13.9999C8.69576 13.9999 8.97259 13.7756 8.97259 13.4989V12.7314C8.92659 12.7336 8.88034 12.735 8.83369 12.735Z" />
</svg>
